<mxfile host="app.diagrams.net" agent="Mozilla/5.0 (Windows NT 10.0; Win64; x64) AppleWebKit/537.36 (KHTML, like Gecko) Chrome/139.0.0.0 Safari/537.36" version="28.1.2">
  <diagram name="PÃ¡gina-1" id="i7hEdmlSR3R2jYSTW4I0">
    <mxGraphModel dx="2264" dy="1927" grid="1" gridSize="10" guides="1" tooltips="1" connect="1" arrows="1" fold="1" page="1" pageScale="1" pageWidth="827" pageHeight="1169" math="0" shadow="0">
      <root>
        <mxCell id="0" />
        <mxCell id="1" parent="0" />
        <mxCell id="G-Qi5bz6n_XVfrinfc0t-10" value="&lt;p style=&quot;margin:0px;margin-top:6px;text-align:center;&quot;&gt;&amp;lt;&amp;lt;subsystem&amp;gt;&amp;gt;&amp;nbsp;&lt;b&gt;Concurrency&lt;/b&gt;&lt;/p&gt;&lt;hr size=&quot;1&quot; style=&quot;border-style:solid;&quot;&gt;&lt;p style=&quot;text-align: center; margin: 0px 0px 0px 8px;&quot;&gt;Internal structure&lt;/p&gt;" style="align=left;overflow=fill;html=1;dropTarget=0;whiteSpace=wrap;" vertex="1" parent="1">
          <mxGeometry x="80" y="70" width="530" height="140" as="geometry" />
        </mxCell>
        <mxCell id="G-Qi5bz6n_XVfrinfc0t-11" value="" style="shape=component;jettyWidth=8;jettyHeight=4;" vertex="1" parent="G-Qi5bz6n_XVfrinfc0t-10">
          <mxGeometry x="1" width="20" height="20" relative="1" as="geometry">
            <mxPoint x="-24" y="4" as="offset" />
          </mxGeometry>
        </mxCell>
        <mxCell id="G-Qi5bz6n_XVfrinfc0t-4" value=":DeadLock" style="html=1;dropTarget=0;whiteSpace=wrap;" vertex="1" parent="1">
          <mxGeometry x="100" y="130" width="130" height="50" as="geometry" />
        </mxCell>
        <mxCell id="G-Qi5bz6n_XVfrinfc0t-5" value="" style="shape=module;jettyWidth=8;jettyHeight=4;" vertex="1" parent="G-Qi5bz6n_XVfrinfc0t-4">
          <mxGeometry x="1" width="20" height="20" relative="1" as="geometry">
            <mxPoint x="-27" y="7" as="offset" />
          </mxGeometry>
        </mxCell>
        <mxCell id="G-Qi5bz6n_XVfrinfc0t-97" style="edgeStyle=orthogonalEdgeStyle;rounded=0;orthogonalLoop=1;jettySize=auto;html=1;" edge="1" parent="1" source="G-Qi5bz6n_XVfrinfc0t-12" target="G-Qi5bz6n_XVfrinfc0t-19">
          <mxGeometry relative="1" as="geometry">
            <Array as="points">
              <mxPoint x="325" y="190" />
              <mxPoint x="225" y="190" />
            </Array>
          </mxGeometry>
        </mxCell>
        <mxCell id="G-Qi5bz6n_XVfrinfc0t-98" value="uses" style="edgeLabel;html=1;align=center;verticalAlign=middle;resizable=0;points=[];" vertex="1" connectable="0" parent="G-Qi5bz6n_XVfrinfc0t-97">
          <mxGeometry x="-0.4018" y="-2" relative="1" as="geometry">
            <mxPoint as="offset" />
          </mxGeometry>
        </mxCell>
        <mxCell id="G-Qi5bz6n_XVfrinfc0t-12" value=":OrderedTransfer" style="html=1;dropTarget=0;whiteSpace=wrap;" vertex="1" parent="1">
          <mxGeometry x="250" y="130" width="150" height="50" as="geometry" />
        </mxCell>
        <mxCell id="G-Qi5bz6n_XVfrinfc0t-13" value="" style="shape=module;jettyWidth=8;jettyHeight=4;" vertex="1" parent="G-Qi5bz6n_XVfrinfc0t-12">
          <mxGeometry x="1" width="20" height="20" relative="1" as="geometry">
            <mxPoint x="-27" y="7" as="offset" />
          </mxGeometry>
        </mxCell>
        <mxCell id="G-Qi5bz6n_XVfrinfc0t-14" value=":TryLockTransfer" style="html=1;dropTarget=0;whiteSpace=wrap;" vertex="1" parent="1">
          <mxGeometry x="414" y="130" width="150" height="50" as="geometry" />
        </mxCell>
        <mxCell id="G-Qi5bz6n_XVfrinfc0t-15" value="" style="shape=module;jettyWidth=8;jettyHeight=4;" vertex="1" parent="G-Qi5bz6n_XVfrinfc0t-14">
          <mxGeometry x="1" width="20" height="20" relative="1" as="geometry">
            <mxPoint x="-27" y="7" as="offset" />
          </mxGeometry>
        </mxCell>
        <mxCell id="G-Qi5bz6n_XVfrinfc0t-16" value="" style="rounded=0;whiteSpace=wrap;html=1;" vertex="1" parent="1">
          <mxGeometry x="90" y="150" width="10" height="10" as="geometry" />
        </mxCell>
        <mxCell id="G-Qi5bz6n_XVfrinfc0t-17" value="&lt;p style=&quot;margin:0px;margin-top:6px;text-align:center;&quot;&gt;&amp;lt;&amp;lt;subsystem&amp;gt;&amp;gt; &lt;b&gt;Banking&lt;/b&gt;&lt;/p&gt;&lt;hr size=&quot;1&quot; style=&quot;border-style:solid;&quot;&gt;&lt;p style=&quot;text-align: center; margin: 0px 0px 0px 8px;&quot;&gt;Internal structure&lt;/p&gt;" style="align=left;overflow=fill;html=1;dropTarget=0;whiteSpace=wrap;" vertex="1" parent="1">
          <mxGeometry x="10" y="310" width="530" height="140" as="geometry" />
        </mxCell>
        <mxCell id="G-Qi5bz6n_XVfrinfc0t-18" value="" style="shape=component;jettyWidth=8;jettyHeight=4;" vertex="1" parent="G-Qi5bz6n_XVfrinfc0t-17">
          <mxGeometry x="1" width="20" height="20" relative="1" as="geometry">
            <mxPoint x="-24" y="4" as="offset" />
          </mxGeometry>
        </mxCell>
        <mxCell id="G-Qi5bz6n_XVfrinfc0t-19" value=":TransferService" style="html=1;dropTarget=0;whiteSpace=wrap;" vertex="1" parent="1">
          <mxGeometry x="50" y="370" width="150" height="50" as="geometry" />
        </mxCell>
        <mxCell id="G-Qi5bz6n_XVfrinfc0t-20" value="" style="shape=module;jettyWidth=8;jettyHeight=4;" vertex="1" parent="G-Qi5bz6n_XVfrinfc0t-19">
          <mxGeometry x="1" width="20" height="20" relative="1" as="geometry">
            <mxPoint x="-27" y="7" as="offset" />
          </mxGeometry>
        </mxCell>
        <mxCell id="G-Qi5bz6n_XVfrinfc0t-103" style="edgeStyle=orthogonalEdgeStyle;rounded=0;orthogonalLoop=1;jettySize=auto;html=1;" edge="1" parent="1" source="G-Qi5bz6n_XVfrinfc0t-21" target="G-Qi5bz6n_XVfrinfc0t-19">
          <mxGeometry relative="1" as="geometry" />
        </mxCell>
        <mxCell id="G-Qi5bz6n_XVfrinfc0t-104" value="balance managment" style="edgeLabel;html=1;align=center;verticalAlign=middle;resizable=0;points=[];" vertex="1" connectable="0" parent="G-Qi5bz6n_XVfrinfc0t-103">
          <mxGeometry x="-0.0154" relative="1" as="geometry">
            <mxPoint as="offset" />
          </mxGeometry>
        </mxCell>
        <mxCell id="G-Qi5bz6n_XVfrinfc0t-21" value=":BankAccount" style="html=1;dropTarget=0;whiteSpace=wrap;" vertex="1" parent="1">
          <mxGeometry x="330" y="370" width="150" height="50" as="geometry" />
        </mxCell>
        <mxCell id="G-Qi5bz6n_XVfrinfc0t-22" value="" style="shape=module;jettyWidth=8;jettyHeight=4;" vertex="1" parent="G-Qi5bz6n_XVfrinfc0t-21">
          <mxGeometry x="1" width="20" height="20" relative="1" as="geometry">
            <mxPoint x="-27" y="7" as="offset" />
          </mxGeometry>
        </mxCell>
        <mxCell id="G-Qi5bz6n_XVfrinfc0t-23" value="&lt;p style=&quot;margin:0px;margin-top:6px;text-align:center;&quot;&gt;&amp;lt;&amp;lt;subsystem&amp;gt;&amp;gt; &lt;b&gt;Inmortal Entities&lt;/b&gt;&lt;/p&gt;&lt;hr size=&quot;1&quot; style=&quot;border-style:solid;&quot;&gt;&lt;p style=&quot;text-align: center; margin: 0px 0px 0px 8px;&quot;&gt;Internal structure&lt;/p&gt;" style="align=left;overflow=fill;html=1;dropTarget=0;whiteSpace=wrap;" vertex="1" parent="1">
          <mxGeometry x="560" y="420" width="250" height="140" as="geometry" />
        </mxCell>
        <mxCell id="G-Qi5bz6n_XVfrinfc0t-24" value="" style="shape=component;jettyWidth=8;jettyHeight=4;" vertex="1" parent="G-Qi5bz6n_XVfrinfc0t-23">
          <mxGeometry x="1" width="20" height="20" relative="1" as="geometry">
            <mxPoint x="-24" y="4" as="offset" />
          </mxGeometry>
        </mxCell>
        <mxCell id="G-Qi5bz6n_XVfrinfc0t-25" value=":Inmortal&amp;nbsp;" style="html=1;dropTarget=0;whiteSpace=wrap;" vertex="1" parent="1">
          <mxGeometry x="610" y="480" width="150" height="50" as="geometry" />
        </mxCell>
        <mxCell id="G-Qi5bz6n_XVfrinfc0t-26" value="" style="shape=module;jettyWidth=8;jettyHeight=4;" vertex="1" parent="G-Qi5bz6n_XVfrinfc0t-25">
          <mxGeometry x="1" width="20" height="20" relative="1" as="geometry">
            <mxPoint x="-27" y="7" as="offset" />
          </mxGeometry>
        </mxCell>
        <mxCell id="G-Qi5bz6n_XVfrinfc0t-27" value="&lt;p style=&quot;margin:0px;margin-top:6px;text-align:center;&quot;&gt;&amp;lt;&amp;lt;subsystem&amp;gt;&amp;gt; &lt;b&gt;Simulation Managment&lt;/b&gt;&lt;/p&gt;&lt;hr size=&quot;1&quot; style=&quot;border-style:solid;&quot;&gt;&lt;p style=&quot;text-align: center; margin: 0px 0px 0px 8px;&quot;&gt;Internal structure&lt;/p&gt;" style="align=left;overflow=fill;html=1;dropTarget=0;whiteSpace=wrap;" vertex="1" parent="1">
          <mxGeometry x="730" y="70" width="280" height="270" as="geometry" />
        </mxCell>
        <mxCell id="G-Qi5bz6n_XVfrinfc0t-28" value="" style="shape=component;jettyWidth=8;jettyHeight=4;" vertex="1" parent="G-Qi5bz6n_XVfrinfc0t-27">
          <mxGeometry x="1" width="20" height="20" relative="1" as="geometry">
            <mxPoint x="-24" y="4" as="offset" />
          </mxGeometry>
        </mxCell>
        <mxCell id="G-Qi5bz6n_XVfrinfc0t-105" style="edgeStyle=orthogonalEdgeStyle;rounded=0;orthogonalLoop=1;jettySize=auto;html=1;" edge="1" parent="1" source="G-Qi5bz6n_XVfrinfc0t-29" target="G-Qi5bz6n_XVfrinfc0t-25">
          <mxGeometry relative="1" as="geometry" />
        </mxCell>
        <mxCell id="G-Qi5bz6n_XVfrinfc0t-107" value="creates" style="edgeLabel;html=1;align=center;verticalAlign=middle;resizable=0;points=[];" vertex="1" connectable="0" parent="G-Qi5bz6n_XVfrinfc0t-105">
          <mxGeometry x="-0.15" relative="1" as="geometry">
            <mxPoint as="offset" />
          </mxGeometry>
        </mxCell>
        <mxCell id="G-Qi5bz6n_XVfrinfc0t-29" value=":InmortalManager" style="html=1;dropTarget=0;whiteSpace=wrap;" vertex="1" parent="1">
          <mxGeometry x="790" y="130" width="160" height="50" as="geometry" />
        </mxCell>
        <mxCell id="G-Qi5bz6n_XVfrinfc0t-30" value="" style="shape=module;jettyWidth=8;jettyHeight=4;" vertex="1" parent="G-Qi5bz6n_XVfrinfc0t-29">
          <mxGeometry x="1" width="20" height="20" relative="1" as="geometry">
            <mxPoint x="-27" y="7" as="offset" />
          </mxGeometry>
        </mxCell>
        <mxCell id="G-Qi5bz6n_XVfrinfc0t-31" value=":ScoreBoard" style="html=1;dropTarget=0;whiteSpace=wrap;" vertex="1" parent="1">
          <mxGeometry x="790" y="220" width="160" height="50" as="geometry" />
        </mxCell>
        <mxCell id="G-Qi5bz6n_XVfrinfc0t-32" value="" style="shape=module;jettyWidth=8;jettyHeight=4;" vertex="1" parent="G-Qi5bz6n_XVfrinfc0t-31">
          <mxGeometry x="1" width="20" height="20" relative="1" as="geometry">
            <mxPoint x="-27" y="7" as="offset" />
          </mxGeometry>
        </mxCell>
        <mxCell id="G-Qi5bz6n_XVfrinfc0t-33" value="&lt;p style=&quot;margin:0px;margin-top:6px;text-align:center;&quot;&gt;&amp;lt;&amp;lt;subsystem&amp;gt;&amp;gt; &lt;b&gt;Aplication Layer&lt;/b&gt;&lt;/p&gt;&lt;hr size=&quot;1&quot; style=&quot;border-style:solid;&quot;&gt;&lt;p style=&quot;text-align: center; margin: 0px 0px 0px 8px;&quot;&gt;Internal structure&lt;/p&gt;" style="align=left;overflow=fill;html=1;dropTarget=0;whiteSpace=wrap;" vertex="1" parent="1">
          <mxGeometry x="740" y="-230" width="280" height="230" as="geometry" />
        </mxCell>
        <mxCell id="G-Qi5bz6n_XVfrinfc0t-34" value="" style="shape=component;jettyWidth=8;jettyHeight=4;" vertex="1" parent="G-Qi5bz6n_XVfrinfc0t-33">
          <mxGeometry x="1" width="20" height="20" relative="1" as="geometry">
            <mxPoint x="-24" y="4" as="offset" />
          </mxGeometry>
        </mxCell>
        <mxCell id="G-Qi5bz6n_XVfrinfc0t-35" value=":main" style="html=1;dropTarget=0;whiteSpace=wrap;" vertex="1" parent="1">
          <mxGeometry x="800" y="-170" width="160" height="50" as="geometry" />
        </mxCell>
        <mxCell id="G-Qi5bz6n_XVfrinfc0t-36" value="" style="shape=module;jettyWidth=8;jettyHeight=4;" vertex="1" parent="G-Qi5bz6n_XVfrinfc0t-35">
          <mxGeometry x="1" width="20" height="20" relative="1" as="geometry">
            <mxPoint x="-27" y="7" as="offset" />
          </mxGeometry>
        </mxCell>
        <mxCell id="G-Qi5bz6n_XVfrinfc0t-37" value=":ControlFrame" style="html=1;dropTarget=0;whiteSpace=wrap;" vertex="1" parent="1">
          <mxGeometry x="800" y="-80" width="160" height="50" as="geometry" />
        </mxCell>
        <mxCell id="G-Qi5bz6n_XVfrinfc0t-38" value="" style="shape=module;jettyWidth=8;jettyHeight=4;" vertex="1" parent="G-Qi5bz6n_XVfrinfc0t-37">
          <mxGeometry x="1" width="20" height="20" relative="1" as="geometry">
            <mxPoint x="-27" y="7" as="offset" />
          </mxGeometry>
        </mxCell>
        <mxCell id="G-Qi5bz6n_XVfrinfc0t-39" style="edgeStyle=orthogonalEdgeStyle;rounded=0;orthogonalLoop=1;jettySize=auto;html=1;entryX=0.537;entryY=-0.009;entryDx=0;entryDy=0;entryPerimeter=0;" edge="1" parent="1" source="G-Qi5bz6n_XVfrinfc0t-53" target="G-Qi5bz6n_XVfrinfc0t-27">
          <mxGeometry relative="1" as="geometry" />
        </mxCell>
        <mxCell id="G-Qi5bz6n_XVfrinfc0t-59" value="starts" style="edgeLabel;html=1;align=center;verticalAlign=middle;resizable=0;points=[];" vertex="1" connectable="0" parent="G-Qi5bz6n_XVfrinfc0t-39">
          <mxGeometry x="-0.1528" relative="1" as="geometry">
            <mxPoint y="2" as="offset" />
          </mxGeometry>
        </mxCell>
        <mxCell id="G-Qi5bz6n_XVfrinfc0t-47" value="" style="rounded=0;whiteSpace=wrap;html=1;" vertex="1" parent="1">
          <mxGeometry x="730" y="-120" width="10" height="10" as="geometry" />
        </mxCell>
        <mxCell id="G-Qi5bz6n_XVfrinfc0t-49" value="" style="rounded=0;whiteSpace=wrap;html=1;" vertex="1" parent="1">
          <mxGeometry x="730" y="-100" width="10" height="10" as="geometry" />
        </mxCell>
        <mxCell id="G-Qi5bz6n_XVfrinfc0t-52" value="" style="rounded=0;whiteSpace=wrap;html=1;" vertex="1" parent="1">
          <mxGeometry x="730" y="-80" width="10" height="10" as="geometry" />
        </mxCell>
        <mxCell id="G-Qi5bz6n_XVfrinfc0t-54" value="" style="edgeStyle=orthogonalEdgeStyle;rounded=0;orthogonalLoop=1;jettySize=auto;html=1;entryX=0.537;entryY=-0.009;entryDx=0;entryDy=0;entryPerimeter=0;" edge="1" parent="1" source="G-Qi5bz6n_XVfrinfc0t-33" target="G-Qi5bz6n_XVfrinfc0t-53">
          <mxGeometry relative="1" as="geometry">
            <mxPoint x="880" as="sourcePoint" />
            <mxPoint x="880" y="68" as="targetPoint" />
          </mxGeometry>
        </mxCell>
        <mxCell id="G-Qi5bz6n_XVfrinfc0t-53" value="" style="rounded=0;whiteSpace=wrap;html=1;" vertex="1" parent="1">
          <mxGeometry x="875" width="10" height="10" as="geometry" />
        </mxCell>
        <mxCell id="G-Qi5bz6n_XVfrinfc0t-61" value="" style="edgeStyle=orthogonalEdgeStyle;rounded=0;orthogonalLoop=1;jettySize=auto;html=1;entryX=0.5;entryY=0;entryDx=0;entryDy=0;" edge="1" parent="1" source="G-Qi5bz6n_XVfrinfc0t-49" target="G-Qi5bz6n_XVfrinfc0t-60">
          <mxGeometry relative="1" as="geometry">
            <mxPoint x="730" y="-95" as="sourcePoint" />
            <mxPoint x="363" y="130" as="targetPoint" />
          </mxGeometry>
        </mxCell>
        <mxCell id="G-Qi5bz6n_XVfrinfc0t-62" value="executes" style="edgeLabel;html=1;align=center;verticalAlign=middle;resizable=0;points=[];" vertex="1" connectable="0" parent="G-Qi5bz6n_XVfrinfc0t-61">
          <mxGeometry x="-0.6122" y="-4" relative="1" as="geometry">
            <mxPoint as="offset" />
          </mxGeometry>
        </mxCell>
        <mxCell id="G-Qi5bz6n_XVfrinfc0t-60" value="" style="rounded=0;whiteSpace=wrap;html=1;" vertex="1" parent="1">
          <mxGeometry x="360" y="120" width="10" height="10" as="geometry" />
        </mxCell>
        <mxCell id="G-Qi5bz6n_XVfrinfc0t-69" value="" style="edgeStyle=orthogonalEdgeStyle;rounded=0;orthogonalLoop=1;jettySize=auto;html=1;" edge="1" parent="1" source="G-Qi5bz6n_XVfrinfc0t-47" target="G-Qi5bz6n_XVfrinfc0t-68">
          <mxGeometry relative="1" as="geometry">
            <mxPoint x="730" y="-115" as="sourcePoint" />
            <mxPoint x="165" y="130" as="targetPoint" />
          </mxGeometry>
        </mxCell>
        <mxCell id="G-Qi5bz6n_XVfrinfc0t-70" value="executes" style="edgeLabel;html=1;align=center;verticalAlign=middle;resizable=0;points=[];" vertex="1" connectable="0" parent="G-Qi5bz6n_XVfrinfc0t-69">
          <mxGeometry x="-0.6801" relative="1" as="geometry">
            <mxPoint as="offset" />
          </mxGeometry>
        </mxCell>
        <mxCell id="G-Qi5bz6n_XVfrinfc0t-68" value="" style="rounded=0;whiteSpace=wrap;html=1;" vertex="1" parent="1">
          <mxGeometry x="160" y="120" width="10" height="10" as="geometry" />
        </mxCell>
        <mxCell id="G-Qi5bz6n_XVfrinfc0t-72" value="" style="edgeStyle=orthogonalEdgeStyle;rounded=0;orthogonalLoop=1;jettySize=auto;html=1;entryX=1;entryY=0.75;entryDx=0;entryDy=0;" edge="1" parent="1" source="G-Qi5bz6n_XVfrinfc0t-33" target="G-Qi5bz6n_XVfrinfc0t-71">
          <mxGeometry relative="1" as="geometry">
            <mxPoint x="740" y="-70" as="sourcePoint" />
            <mxPoint x="557" y="152" as="targetPoint" />
            <Array as="points">
              <mxPoint x="649" y="-70" />
              <mxPoint x="649" y="152" />
            </Array>
          </mxGeometry>
        </mxCell>
        <mxCell id="G-Qi5bz6n_XVfrinfc0t-73" value="execute" style="edgeLabel;html=1;align=center;verticalAlign=middle;resizable=0;points=[];" vertex="1" connectable="0" parent="G-Qi5bz6n_XVfrinfc0t-72">
          <mxGeometry x="-0.7191" y="4" relative="1" as="geometry">
            <mxPoint as="offset" />
          </mxGeometry>
        </mxCell>
        <mxCell id="G-Qi5bz6n_XVfrinfc0t-71" value="" style="rounded=0;whiteSpace=wrap;html=1;" vertex="1" parent="1">
          <mxGeometry x="560" y="150" width="10" height="10" as="geometry" />
        </mxCell>
        <mxCell id="G-Qi5bz6n_XVfrinfc0t-89" style="edgeStyle=orthogonalEdgeStyle;rounded=0;orthogonalLoop=1;jettySize=auto;html=1;entryX=0.25;entryY=0;entryDx=0;entryDy=0;" edge="1" parent="1" source="G-Qi5bz6n_XVfrinfc0t-4" target="G-Qi5bz6n_XVfrinfc0t-21">
          <mxGeometry relative="1" as="geometry">
            <mxPoint x="310" y="230" as="targetPoint" />
            <Array as="points">
              <mxPoint x="165" y="230" />
              <mxPoint x="437" y="230" />
            </Array>
          </mxGeometry>
        </mxCell>
        <mxCell id="G-Qi5bz6n_XVfrinfc0t-90" value="uses" style="edgeLabel;html=1;align=center;verticalAlign=middle;resizable=0;points=[];" vertex="1" connectable="0" parent="G-Qi5bz6n_XVfrinfc0t-89">
          <mxGeometry x="-0.0775" y="4" relative="1" as="geometry">
            <mxPoint as="offset" />
          </mxGeometry>
        </mxCell>
        <mxCell id="G-Qi5bz6n_XVfrinfc0t-91" style="edgeStyle=orthogonalEdgeStyle;rounded=0;orthogonalLoop=1;jettySize=auto;html=1;" edge="1" parent="1" source="G-Qi5bz6n_XVfrinfc0t-12" target="G-Qi5bz6n_XVfrinfc0t-21">
          <mxGeometry relative="1" as="geometry">
            <Array as="points">
              <mxPoint x="325" y="220" />
              <mxPoint x="475" y="220" />
            </Array>
          </mxGeometry>
        </mxCell>
        <mxCell id="G-Qi5bz6n_XVfrinfc0t-92" value="uses" style="edgeLabel;html=1;align=center;verticalAlign=middle;resizable=0;points=[];" vertex="1" connectable="0" parent="G-Qi5bz6n_XVfrinfc0t-91">
          <mxGeometry x="-0.1383" y="-1" relative="1" as="geometry">
            <mxPoint as="offset" />
          </mxGeometry>
        </mxCell>
        <mxCell id="G-Qi5bz6n_XVfrinfc0t-93" style="edgeStyle=orthogonalEdgeStyle;rounded=0;orthogonalLoop=1;jettySize=auto;html=1;entryX=1;entryY=0.25;entryDx=0;entryDy=0;" edge="1" parent="1" source="G-Qi5bz6n_XVfrinfc0t-14" target="G-Qi5bz6n_XVfrinfc0t-21">
          <mxGeometry relative="1" as="geometry">
            <Array as="points">
              <mxPoint x="520" y="220" />
              <mxPoint x="570" y="220" />
              <mxPoint x="570" y="312" />
            </Array>
          </mxGeometry>
        </mxCell>
        <mxCell id="G-Qi5bz6n_XVfrinfc0t-94" value="uses" style="edgeLabel;html=1;align=center;verticalAlign=middle;resizable=0;points=[];" vertex="1" connectable="0" parent="G-Qi5bz6n_XVfrinfc0t-93">
          <mxGeometry x="-0.4198" y="2" relative="1" as="geometry">
            <mxPoint as="offset" />
          </mxGeometry>
        </mxCell>
        <mxCell id="G-Qi5bz6n_XVfrinfc0t-95" style="edgeStyle=orthogonalEdgeStyle;rounded=0;orthogonalLoop=1;jettySize=auto;html=1;entryX=0.576;entryY=0.113;entryDx=0;entryDy=0;entryPerimeter=0;" edge="1" parent="1" source="G-Qi5bz6n_XVfrinfc0t-14" target="G-Qi5bz6n_XVfrinfc0t-19">
          <mxGeometry relative="1" as="geometry">
            <Array as="points">
              <mxPoint x="489" y="200" />
              <mxPoint x="236" y="200" />
            </Array>
          </mxGeometry>
        </mxCell>
        <mxCell id="G-Qi5bz6n_XVfrinfc0t-96" value="uses" style="edgeLabel;html=1;align=center;verticalAlign=middle;resizable=0;points=[];" vertex="1" connectable="0" parent="G-Qi5bz6n_XVfrinfc0t-95">
          <mxGeometry x="-0.2327" relative="1" as="geometry">
            <mxPoint as="offset" />
          </mxGeometry>
        </mxCell>
        <mxCell id="G-Qi5bz6n_XVfrinfc0t-99" style="edgeStyle=orthogonalEdgeStyle;rounded=0;orthogonalLoop=1;jettySize=auto;html=1;entryX=0;entryY=0;entryDx=0;entryDy=0;" edge="1" parent="1" source="G-Qi5bz6n_XVfrinfc0t-4" target="G-Qi5bz6n_XVfrinfc0t-19">
          <mxGeometry relative="1" as="geometry">
            <Array as="points">
              <mxPoint x="140" y="240" />
              <mxPoint x="150" y="240" />
            </Array>
          </mxGeometry>
        </mxCell>
        <mxCell id="G-Qi5bz6n_XVfrinfc0t-100" value="uses" style="edgeLabel;html=1;align=center;verticalAlign=middle;resizable=0;points=[];" vertex="1" connectable="0" parent="G-Qi5bz6n_XVfrinfc0t-99">
          <mxGeometry x="0.0472" y="6" relative="1" as="geometry">
            <mxPoint as="offset" />
          </mxGeometry>
        </mxCell>
        <mxCell id="G-Qi5bz6n_XVfrinfc0t-112" style="edgeStyle=orthogonalEdgeStyle;rounded=0;orthogonalLoop=1;jettySize=auto;html=1;exitX=1;exitY=0.5;exitDx=0;exitDy=0;entryX=1;entryY=0.5;entryDx=0;entryDy=0;dashed=1;" edge="1" parent="1" source="G-Qi5bz6n_XVfrinfc0t-31" target="G-Qi5bz6n_XVfrinfc0t-30">
          <mxGeometry relative="1" as="geometry">
            <mxPoint x="950" y="590" as="sourcePoint" />
            <mxPoint x="1140" y="240" as="targetPoint" />
          </mxGeometry>
        </mxCell>
        <mxCell id="G-Qi5bz6n_XVfrinfc0t-113" value="statistics" style="edgeLabel;html=1;align=center;verticalAlign=middle;resizable=0;points=[];" vertex="1" connectable="0" parent="G-Qi5bz6n_XVfrinfc0t-112">
          <mxGeometry x="0.0743" y="-1" relative="1" as="geometry">
            <mxPoint as="offset" />
          </mxGeometry>
        </mxCell>
      </root>
    </mxGraphModel>
  </diagram>
</mxfile>
